<?xml version="1.0" encoding="utf-8"?>
<!-- Generator: Adobe Illustrator 19.1.1, SVG Export Plug-In . SVG Version: 6.00 Build 0)  -->
<svg version="1.1" id="Слой_1" xmlns="http://www.w3.org/2000/svg" xmlns:xlink="http://www.w3.org/1999/xlink" x="0px" y="0px"
	 viewBox="0 0 348.9 196.4" style="enable-background:new 0 0 348.9 196.4;" xml:space="preserve">
<style type="text/css">
	.st0{clip-path:url(#SVGID_2_); fill: #fff;}
</style>
<g>
	<defs>
		<rect id="SVGID_1_" width="348.9" height="196.4"/>
	</defs>
	<clipPath id="SVGID_2_">
		<use xlink:href="#SVGID_1_"  style="overflow:visible;"/>
	</clipPath>
	<path class="st0" d="M18.6,116.2H8.4c-1.9,0-3.9,1.5-4.4,3.4l-3.8,14.2c-0.5,1.9,0.7,3.4,2.6,3.4h9.9c1.9,0,3.9-1.5,4.4-3.4
		l3.9-14.3C21.7,117.7,20.5,116.2,18.6,116.2"/>
	<path class="st0" d="M30.6,74.2H9c-1.9,0-4,1.5-4.5,3.4L0.2,91.8c-0.6,1.8,0.6,3.3,2.5,3.3h21.8c1.9,0,3.9-1.5,4.5-3.4l4.1-14.3
		C33.6,75.7,32.5,74.2,30.6,74.2"/>
	<path class="st0" d="M2.7,53.2h33.7c1.9,0,3.9-1.5,4.4-3.4l4-14.3c0.5-1.9-0.6-3.4-2.6-3.4H8.5c-1.9,0-3.9,1.5-4.4,3.4L0.1,49.8
		C-0.4,51.6,0.8,53.2,2.7,53.2"/>
	<path class="st0" d="M280,144.5c-14.9,0-27,11.6-27,26s12.1,26,27,26c14.9,0,27-11.6,27-26S294.9,144.5,280,144.5"/>
	<path class="st0" d="M100,144.5c-14.9,0-27,11.6-27,26s12.1,26,27,26c14.9,0,27-11.6,27-26S114.9,144.5,100,144.5"/>
	<path class="st0" d="M250.2,13.7C251.8,6.2,246.8,0,239,0H76.4c-7.7,0-15.3,6.2-16.8,13.7l-29.3,143c-1.5,7.5,3.5,13.7,11.2,13.7
		h12.2h8.8c0-20.1,16.8-36.5,37.5-36.5c20.7,0,37.5,16.4,37.5,36.5h66.7h14.1l6.7-32.8h-0.1L250.2,13.7z"/>
	<path class="st0" d="M347.3,119.3l-29.4-70.9c-1.5-3.6-5.8-6.5-9.7-6.5h-47.1c-3.8,0-7.6,3.1-8.4,6.9L230,163.6
		c-0.1,0.3-0.1,0.6-0.1,0.9l-1.2,6h6.9h6.9c0-20.1,16.8-36.5,37.5-36.5s37.5,16.4,37.5,36.5h16.1c3.8,0,7.6-3.1,8.4-6.8l6.5-31
		C349.3,128.8,348.7,122.8,347.3,119.3 M324.9,102l-61-16.7c-1.9-0.5-3.1-2.5-2.8-4.4l3.9-21.7c0.3-1.9,2.2-3.4,4.1-3.4h36.4
		c1.9,0,4.1,1.5,4.8,3.2l16.6,40.6C327.7,101.5,326.7,102.5,324.9,102"/>
</g>
</svg>
