<?xml version="1.0" encoding="utf-8"?>
<!-- Generator: Adobe Illustrator 19.1.1, SVG Export Plug-In . SVG Version: 6.00 Build 0)  -->
<svg version="1.1" id="Слой_1" xmlns="http://www.w3.org/2000/svg" xmlns:xlink="http://www.w3.org/1999/xlink" x="0px" y="0px"
	 viewBox="0 0 102.5 114.4" style="enable-background:new 0 0 102.5 114.4;" xml:space="preserve">
<style type="text/css">
	.st0{clip-path:url(#SVGID_2_);fill:#FFFFFF;}
</style>
<g>
	<defs>
		<rect id="SVGID_1_" width="102.5" height="114.4"/>
	</defs>
	<clipPath id="SVGID_2_">
		<use xlink:href="#SVGID_1_"  style="overflow:visible;"/>
	</clipPath>
	<path class="st0" d="M47.6,114.4h-39c-2.1,0-3.9-2-3.9-4.5V66.6h42.9V114.4z M47.6,32.9H3.9c-2.1,0-3.9,2-3.9,4.5v20.4
		c0,2.5,1.7,4.5,3.9,4.5h43.7V32.9z M54.8,114.4h39c2.2,0,3.9-2,3.9-4.5V66.6H54.8V114.4z M98.6,32.9H54.8v29.4h43.7
		c2.2,0,3.9-2,3.9-4.5V37.4C102.5,34.9,100.7,32.9,98.6,32.9 M84.5,14.1c-0.1,4.9-3.9,14.1-13,14.1H51.2H30.9c-9.1,0-12.9-9.2-13-14
		C17.9,3,26.8,0,31.3,0l0.1,0h0c5.6,0,9.3,6.2,12.9,12.3c2.9,4.9,5.4,7.7,6.9,7.7c1.4,0,4-2.8,6.9-7.7C61.7,6.2,65.3,0,71,0h0
		C75.7,0,84.5,3,84.5,14.1 M44.7,22.4c-1.5-2-2.9-4.4-4.3-6.7c-2.9-4.8-5.8-9.8-9-9.8h0c-1.8,0-7.5,0.6-7.5,8.3c0,1.3,0.6,8.3,7,8.3
		H44.7z M78.5,14c0-7.6-5.7-8.2-7.4-8.2c-3.3,0-6.2,5-9,9.8c-1.4,2.3-2.8,4.7-4.3,6.7h13.7C78.2,22.4,78.5,14.9,78.5,14"/>
</g>
</svg>
